<?xml version="1.0" encoding="utf-8"?>
<!-- Generator: Adobe Illustrator 16.0.0, SVG Export Plug-In . SVG Version: 6.00 Build 0)  -->
<!DOCTYPE svg PUBLIC "-//W3C//DTD SVG 1.1//EN" "http://www.w3.org/Graphics/SVG/1.1/DTD/svg11.dtd">
<svg version="1.1" id="Layer_1" xmlns="http://www.w3.org/2000/svg" xmlns:xlink="http://www.w3.org/1999/xlink" x="0px" y="0px"
	 width="612px" height="792px" viewBox="0 0 612 792" enable-background="new 0 0 612 792" xml:space="preserve">
<g id="Layer_5">
	<g id="Layer_3">
		<rect x="295.542" y="152.848" fill="#264022" stroke="#48724C" stroke-miterlimit="10" width="8.833" height="170.317"/>
		<rect x="312.042" y="152.848" fill="#264022" stroke="#48724C" stroke-miterlimit="10" width="8.833" height="170.317"/>
		<path fill="#264022" stroke="#395F39" stroke-miterlimit="10" d="M362.125,317.75"/>
	</g>
	<g>
		<path fill="#CA992C" stroke="#FFCD33" stroke-miterlimit="10" d="M327.525,213.399c-1.312-12.579-6.996-18.169-19.242-18.169
			c-11.591,0-17.714,3.075-17.714,11.739c0,7.548,6.123,11.462,17.494,15.375c37.614,13.139,49.858,15.654,49.858,47.8
			c0,24.601-16.399,42.77-47.672,42.77c-30.833,0-50.733-18.729-51.171-47.801h29.304c0,12.86,8.965,20.406,21.647,20.406
			c10.717,0,19.684-4.194,19.684-13.139c0-10.063-5.686-13.417-17.277-16.772c-41.767-11.741-49.419-25.438-49.419-48.64
			c0-20.684,12.464-38.855,46.143-38.855c30.832,0,44.393,17.052,45.703,45.285L327.525,213.399L327.525,213.399z"/>
	</g>
</g>
<g id="Layer_4">
	<g>
		<path fill="#CA992C" stroke="#FFCD33" stroke-miterlimit="10" d="M57.115,240.211v-63.82h16.863v63.82H57.115z"/>
		<path fill="#CA992C" stroke="#FFCD33" stroke-miterlimit="10" d="M131.469,241.006v-38.655c0-9.858-2.854-12.582-10.896-12.582
			c-8.82,0-13.101,4.929-13.101,14.658v36.58H90.608v-63.82h16.085v9.34c3.891-7.135,10.377-11.026,20.625-11.026
			c12.193,0,21.144,7.394,21.144,21.274v44.233h-16.993V241.006z"/>
		<path fill="#CA992C" stroke="#FFCD33" stroke-miterlimit="10" d="M203.433,239.368l-0.129-7.783
			c-4.022,6.485-9.989,9.469-17.772,9.469c-16.084,0-27.629-12.712-27.629-34.246c0-19.328,9.729-32.948,26.203-32.948
			c7.913,0,14.139,3.243,18.939,9.988v-31.65h16.604v87.169L203.433,239.368L203.433,239.368z M203.692,209.015
			c0-13.879-4.799-20.755-14.139-20.755c-9.858,0-14.528,6.616-14.528,19.718c0,11.415,5.967,19.327,14.398,19.327
			C197.465,227.304,203.692,219.781,203.692,209.015z"/>
		<path fill="#CA992C" stroke="#FFCD33" stroke-miterlimit="10" d="M237.775,240.211v-63.82h16.863v63.82H237.775z"/>
		<path fill="#CA992C" stroke="#FFCD33" stroke-miterlimit="10" d="M380.299,212.664c0.521,9.599,5.968,15.825,14.271,15.825
			c5.446,0,10.247-2.724,11.415-7.134h17.382c-3.893,13.101-14.398,20.495-28.021,20.495c-21.272,0-31.91-11.674-31.91-34.764
			c0-19.717,11.285-32.429,30.873-32.429s29.965,12.712,29.965,38.007H380.299z M406.891,202.026
			c-0.26-9.469-6.484-14.008-13.102-14.008c-6.745,0-12.322,5.188-12.971,14.008H406.891z"/>
		<path fill="#CA992C" stroke="#FFCD33" stroke-miterlimit="10" d="M477.814,238.006v-38.655c0-9.858-2.854-12.582-10.896-12.582
			c-8.82,0-13.102,4.929-13.102,14.658v36.58h-16.862v-63.82h16.084v9.34c3.892-7.135,10.378-11.026,20.626-11.026
			c12.192,0,21.143,7.394,21.143,21.274v44.233h-16.992V238.006z"/>
		<path fill="#CA992C" stroke="#FFCD33" stroke-miterlimit="10" d="M549.735,194.292h15.695v18.161
			c0,13.49-7.782,25.554-25.813,25.554c-18.68,0-26.072-11.934-26.072-25.684v-57.075h16.604V172.5h35.283v11.934h-35.283v26.203
			c0,8.042,2.854,12.712,9.729,12.712c6.746,0,9.858-4.54,9.858-12.453L549.735,194.292L549.735,194.292z"/>
	</g>
	<circle fill="#CA992C" stroke="#FFCD33" stroke-miterlimit="10" cx="65.546" cy="160.667" r="10.167"/>
</g>
<g id="Layer_2">
	<path fill="#CA992C" stroke="#FFCD33" stroke-miterlimit="10" d="M327.082,210.287l0.304,3.291c0,0,0.715,3.792-0.66,12.667
		c0,0,15.479,5.455,23.312,11.761c0,0,4.864-7.35,4.823-25.84"/>
</g>
<g id="Layer_6">
	<path fill="#264022" stroke="#335939" stroke-miterlimit="10" d="M295.542,215.594v36.156c0,0,5.042,1.379,8.833,2.562V220.25
		C304.375,220.25,298.583,217.747,295.542,215.594z"/>
	<path fill="#264022" stroke="#335939" stroke-miterlimit="10" d="M312.041,223.317v32.262c0,0,5.043,2.925,8.834,4.108v-33.156
		C320.875,226.531,315.281,224.469,312.041,223.317z"/>
	
		<line fill="none" stroke="#264022" stroke-width="7.8408" stroke-miterlimit="10" x1="299.958" y1="213.875" x2="299.958" y2="260.375"/>
	
		<line fill="none" stroke="#264022" stroke-width="7.8408" stroke-miterlimit="10" x1="316.458" y1="218.252" x2="316.458" y2="264.752"/>
</g>
<g id="Layer_7">
	
		<ellipse transform="matrix(-0.7564 0.6541 -0.6541 -0.7564 537.8 101.9184)" fill="#ECB23D" stroke="#FFCD33" stroke-miterlimit="10" cx="249.922" cy="151.101" rx="24.499" ry="12.093"/>
	
		<ellipse transform="matrix(-0.7564 0.6541 -0.6541 -0.7564 530.2228 100.9717)" fill="#CA992C" stroke="#FFCD33" stroke-miterlimit="10" cx="246.31" cy="149.217" rx="24.499" ry="12.093"/>
	<g opacity="0.2">
		<path fill="#0B0B0A" stroke="#0C0C0C" stroke-miterlimit="10" d="M237.602,154.153l1.061-0.575c0,0,0.375-0.288,0.553,0
			c0.176,0.288-0.082,0.398-0.186,0.464c-0.102,0.067-0.721,0.155-1.008,0.531c-0.287,0.375-0.42,0.464-0.42,0.464V154.153z"/>
		<path fill="#0B0B0A" stroke="#0C0C0C" stroke-miterlimit="10" d="M237.602,156.053c0,0,0.524,0.034,0.836-0.265
			c0.312-0.298,0.766-0.464,0.838-0.464c0.071,0,0.336,0.001,0.203,0.365c-0.132,0.364-0.92,0.496-0.92,0.496
			s-0.439,0.365-0.506,0.398c-0.064,0.033-0.629,0.332-0.629,0.332"/>
		<path fill="#0B0B0A" stroke="#0C0C0C" stroke-miterlimit="10" d="M241.402,157.346c0,0,0.347-0.859,1.027-1.425
			c0.68-0.566,2.686-3.68,2.686-3.68s0.861-1.193,1.226-0.563c0.365,0.629-0.763,1.16-0.896,1.326
			c-0.133,0.166-0.994,1.524-1.094,1.69s-1.657,1.757-1.69,1.856c-0.032,0.099-0.431,0.795-0.431,0.795h-0.828V157.346z"/>
		<path fill="#0B0B0A" stroke="#0C0C0C" stroke-miterlimit="10" d="M246.105,153.965c0,0-0.924,0.928-1.059,1.359
			c-0.132,0.431,0.398,0,0.398,0"/>
		<path fill="#0B0B0A" stroke="#0C0C0C" stroke-miterlimit="10" d="M240.205,143.457l4.82-1.824c0,0,0.85-0.331,0.42-0.596
			c-0.431-0.265-1.358,0.123-2.718,0.907c-1.358,0.784-2.386,1.139-2.386,1.139L240.205,143.457z"/>
		<path fill="#0B0B0A" stroke="#0C0C0C" stroke-miterlimit="10" d="M245.744,141.41c0,0-0.564,0.564-0.664,1.127
			s-0.762,1.425-0.795,1.955c-0.033,0.531,0.1,0.531,0.298,0.564c0.2,0.033,0.429-0.696,0.429-0.696s0.566-1.823,0.898-2.419
			S245.744,141.41,245.744,141.41z"/>
		<path fill="#0B0B0A" stroke="#0C0C0C" stroke-miterlimit="10" d="M245.146,144.816c0,0-0.529,0.299-0.563,0.53v0.266l-0.528,1.591
			c0,0,0,0.53,0.545,0.464c0.547-0.067,1.344-0.133,1.344-0.133l0.299,0.364c0,0,0.031,1.338,0.264,1.73
			c0.233,0.392,0.764,0.271,1.062,0c0.298-0.271,1.69-1.299,2.022-1.697l0.133-0.584c0,0-0.034-0.186-0.3,0
			c-0.265,0.187-0.628,0.551-0.628,0.551s-0.233-0.936-0.564-0.551c-0.332,0.386-0.432,0.419-0.332,0.651s0.364,0.464,0.364,0.464
			l-0.563,0.398c0,0-0.363,0.463-0.563-0.133c-0.198-0.597-0.43-0.862-0.43-0.862s0.265-0.364-0.101-1.16l-1.523,0.066
			c0,0-0.531,0.243-0.244-0.332C245.126,145.866,245.146,144.816,245.146,144.816z"/>
		<path fill="#0B0B0A" stroke="#0C0C0C" stroke-miterlimit="10" d="M249.358,147.841c0,0,0.929,1.227,3.714-1.525
			c0,0,0.198,0.497,0.299,1.093c0.098,0.597,1.688,1.327,2.518,1.558c0,0,0.432,0.199,0.995,0.763c0,0,0.397,0,0.563-0.614
			c0.164-0.613-0.896-1.574-0.896-1.574l-0.364,0.332c0,0-1.954-0.033-2.187-1.558c0,0-0.199-0.696-0.432-0.994
			c0,0-2.917,2.552-3.879,2.055C249.689,147.377,249.393,147.509,249.358,147.841z"/>
		<path fill="#0B0B0A" stroke="#0C0C0C" stroke-miterlimit="10" d="M251.434,140.64c0,0,0.465,1.16-0.53,1.624
			c0,0-0.33,0.066-0.165-0.63c0,0-0.307-0.391-0.198-0.679c0.071-0.19,0.388-0.322,0.861-0.315"/>
		<path fill="#0B0B0A" stroke="#0C0C0C" stroke-miterlimit="10" d="M252.672,139.828c0,0,0.464,1.16-0.531,1.624
			c0,0-0.332,0.067-0.166-0.63c0,0-0.305-0.392-0.199-0.679c0.072-0.19,0.389-0.321,0.863-0.314"/>
		<path fill="#0B0B0A" stroke="#0C0C0C" stroke-miterlimit="10" d="M253.697,139.014c0,0,0.466,1.16-0.529,1.624
			c0,0-0.332,0.067-0.166-0.63c0,0-0.307-0.39-0.199-0.679c0.072-0.19,0.388-0.322,0.862-0.315"/>
		<path fill="#0B0B0A" stroke="#0C0C0C" stroke-miterlimit="10" d="M237.854,150.192c0,0,0.382-0.149,0.409-0.48
			c0,0,0.764,0.032,1.736-0.763l0.176,0.133c0,0,0.064,0.149,0,0.398c0,0-1.631,1.801-2.035,1.746"/>
		<path fill="none" stroke="#0C0C0C" stroke-miterlimit="10" d="M246.38,137.029c-0.048,0.034-2.056,1.359-2.949,2.231
			c-0.896,0.874-2.012,1.846-2.012,1.846h-0.198c0,0-0.961,0.619-1.436,2.188c0,0-2.155,2.873-3.094,6.552l0.597,0.95
			c0,0,0.12,0.598-2.222,4.232c0,0-0.266,0.375,0,0.597c0.266,0.221,0.619,0.111,0.917,0c0.298-0.111,1.127-0.53,1.127-0.53
			s-0.198,1.325,0.023,1.425c0,0-0.409,0.52,0.032,1.049c0,0-0.032,0.708-0.266,1.436c0,0,0.033,0.785,0.973,0.608
			c0.939-0.176,0.54-0.354,1.16-0.673c0.619-0.32,3.934-1.437,3.934-1.437s0.816,1.978-1.006,5.049l0.242,0.376
			c0,0,8.365-2.63,14.764-13.701l0.297-0.995c0,0-1.525-1.16-2.221-2.818c0,0,0.564-2.021,0-2.618l0.729-2.188l-0.066-0.629
			c0,0,0.365-1.16,0-1.591c0,0-0.488-0.456-1.217-0.274l-0.414-0.729c0,0-0.043-0.746-0.605-0.878c-0.564-0.133-0.033,0-0.033,0
			s-0.293-0.639-1.055-0.66C252.381,135.847,249.851,134.526,246.38,137.029z"/>
	</g>
</g>
<line fill="none" stroke="#48724C" stroke-miterlimit="10" x1="295.542" y1="212.75" x2="295.542" y2="255.167"/>
<line fill="none" stroke="#48724C" stroke-miterlimit="10" x1="304.375" y1="213.417" x2="304.375" y2="256.5"/>
<line fill="none" stroke="#48724C" stroke-miterlimit="10" x1="312.042" y1="213.875" x2="312.042" y2="262.583"/>
<line fill="none" stroke="#48724C" stroke-miterlimit="10" x1="320.875" y1="217.75" x2="320.875" y2="269.667"/>
</svg>
